<svg width="209" height="29" viewBox="0 0 209 29" fill="none" xmlns="http://www.w3.org/2000/svg">
<path d="M0.479988 28.2H-1.21593e-05L11.96 0.20001L12.4 1.04904e-05L22.48 28.2H19.08L15.96 19.4H4.27999L0.479988 28.2ZM10.72 4.52001L4.43999 19H15.84L10.72 4.52001ZM49.0122 12.8C49.0122 11.1733 48.7988 10.0267 48.3722 9.36001C47.9455 8.69334 47.1322 8.36001 45.9322 8.36001C44.3322 8.36001 42.9055 9.02668 41.6522 10.36C40.4255 11.6933 39.8122 12.8933 39.8122 13.96V28.2H37.0122V12.8C37.0122 11.1733 36.7988 10.0267 36.3722 9.36001C35.9455 8.69334 35.0388 8.36001 33.6522 8.36001C32.2655 8.36001 30.9455 9.00001 29.6922 10.28C28.4655 11.56 27.7988 12.7467 27.6922 13.84V28.2H24.8922V8.20001H27.6922V12.72C28.1188 11.5733 28.9055 10.5067 30.0522 9.52001C31.1988 8.53335 32.4788 8.04001 33.8922 8.04001C35.3055 8.04001 36.4255 8.17335 37.2522 8.44001C38.1055 8.68001 38.7055 9.06668 39.0522 9.60001C39.3988 10.1333 39.6122 10.6 39.6922 11C39.7722 11.4 39.8122 11.96 39.8122 12.68C40.2388 11.5333 41.0122 10.48 42.1322 9.52001C43.2522 8.53335 44.4522 8.04001 45.7322 8.04001C47.0122 8.04001 48.0388 8.14668 48.8122 8.36001C49.5855 8.57334 50.1588 8.81334 50.5322 9.08001C50.9322 9.34668 51.2255 9.73334 51.4122 10.24C51.6255 10.7467 51.7455 11.16 51.7722 11.48C51.7988 11.8 51.8122 12.2533 51.8122 12.84V25.36C51.8122 26.1333 51.9588 26.7333 52.2522 27.16C52.5722 27.56 52.8922 27.7733 53.2122 27.8L53.6522 27.88H54.8922V28.2H52.4522C51.3588 28.2 50.5188 27.96 49.9322 27.48C49.3722 27 49.0788 26.52 49.0522 26.04L49.0122 25.36V12.8ZM65.1534 28.36C62.3534 28.36 60.0734 27.56 58.3134 25.96C56.5534 24.36 55.6734 21.8933 55.6734 18.56C55.6734 15.2267 56.5801 12.64 58.3934 10.8C60.2334 8.96001 62.5534 8.04001 65.3534 8.04001C68.1801 8.04001 70.4734 8.84001 72.2334 10.44C73.9934 12.04 74.8734 14.5067 74.8734 17.84C74.8734 21.1733 73.9534 23.76 72.1134 25.6C70.3001 27.44 67.9801 28.36 65.1534 28.36ZM65.4334 8.36001C63.4068 8.36001 61.7268 9.26668 60.3934 11.08C59.0601 12.8667 58.3934 15.3733 58.3934 18.6C58.3934 21.8 59.0068 24.1733 60.2334 25.72C61.4601 27.2667 63.0868 28.04 65.1134 28.04C67.1401 28.04 68.8201 27.1467 70.1534 25.36C71.4868 23.5467 72.1534 21.04 72.1534 17.84C72.1534 14.6133 71.5401 12.2267 70.3134 10.68C69.0868 9.13334 67.4601 8.36001 65.4334 8.36001ZM84.915 9.92001V9.08001C83.715 9.56001 82.6217 10.5333 81.635 12C80.6483 13.44 80.1283 14.8 80.075 16.08V28.2H77.275V8.20001H80.075V14.56C80.5017 13.0133 81.315 11.56 82.515 10.2C83.715 8.81334 85.075 8.09334 86.595 8.04001H86.755C87.2883 8.04001 87.7283 8.22668 88.075 8.60001C88.4483 8.94668 88.635 9.38668 88.635 9.92001C88.635 10.4533 88.4483 10.8933 88.075 11.24C87.7283 11.5867 87.2883 11.76 86.755 11.76C86.2217 11.76 85.7817 11.5867 85.435 11.24C85.0883 10.8933 84.915 10.4533 84.915 9.92001ZM120.723 0.20001V0.60001H108.123V12.6H119.803V13H108.123V27.8H121.603V28.2H104.803V0.20001H120.723ZM124.419 8.52001V8.20001H125.259V4.20001H128.059V8.20001H134.179V8.52001H128.059V23.08C128.059 24.8133 128.245 26.0667 128.619 26.84C129.019 27.6133 129.832 28 131.059 28C132.312 28 133.579 27.7467 134.859 27.24L134.979 27.56C133.645 28.0667 132.112 28.32 130.379 28.32C128.672 28.32 127.392 27.9733 126.539 27.28C125.685 26.56 125.259 25.1467 125.259 23.04V8.52001H124.419ZM139.487 18.44C139.487 21.7467 140.061 24.1733 141.207 25.72C142.381 27.2667 143.914 28.04 145.807 28.04C148.474 28.04 150.847 27.64 152.927 26.84L153.047 27.12C150.914 27.9467 148.501 28.36 145.807 28.36C143.141 28.36 140.967 27.56 139.287 25.96C137.607 24.36 136.767 21.8933 136.767 18.56C136.767 15.2267 137.647 12.64 139.407 10.8C141.167 8.96001 143.407 8.04001 146.127 8.04001C148.314 8.04001 150.154 8.69335 151.647 10C153.141 11.3067 153.887 13.24 153.887 15.8C153.887 15.9333 153.887 16.0667 153.887 16.2H139.607C139.527 16.92 139.487 17.6667 139.487 18.44ZM151.167 15.88C151.141 13.32 150.647 11.4267 149.687 10.2C148.727 8.97334 147.487 8.36001 145.967 8.36001C144.447 8.36001 143.087 9.02668 141.887 10.36C140.714 11.6933 139.967 13.5333 139.647 15.88H151.167ZM163.157 9.92001V9.08001C161.957 9.56001 160.864 10.5333 159.877 12C158.891 13.44 158.371 14.8 158.317 16.08V28.2H155.517V8.20001H158.317V14.56C158.744 13.0133 159.557 11.56 160.757 10.2C161.957 8.81334 163.317 8.09334 164.837 8.04001H164.997C165.531 8.04001 165.971 8.22668 166.317 8.60001C166.691 8.94668 166.877 9.38668 166.877 9.92001C166.877 10.4533 166.691 10.8933 166.317 11.24C165.971 11.5867 165.531 11.76 164.997 11.76C164.464 11.76 164.024 11.5867 163.677 11.24C163.331 10.8933 163.157 10.4533 163.157 9.92001ZM186.492 28.2C185.399 28.2 184.559 27.96 183.972 27.48C183.412 27 183.119 26.52 183.092 26.04L183.052 25.36V12.8C183.052 10.6933 182.506 9.34668 181.412 8.76001C180.852 8.49334 180.159 8.36001 179.332 8.36001C177.626 8.36001 176.092 9.04001 174.732 10.4C173.372 11.7333 172.692 12.9333 172.692 14V28.2H169.892V8.20001H172.692V12.76C173.146 11.6133 173.986 10.5467 175.212 9.56001C176.439 8.54668 177.786 8.04001 179.252 8.04001C180.719 8.04001 181.906 8.18668 182.812 8.48001C183.746 8.74668 184.426 9.13335 184.852 9.64001C185.519 10.4667 185.852 11.5333 185.852 12.84V25.36C185.852 26.1333 185.999 26.7333 186.292 27.16C186.612 27.56 186.932 27.7733 187.252 27.8L187.692 27.88H188.932V28.2H186.492ZM198.825 28.36C196.025 28.36 193.745 27.56 191.985 25.96C190.225 24.36 189.345 21.8933 189.345 18.56C189.345 15.2267 190.252 12.64 192.065 10.8C193.905 8.96001 196.225 8.04001 199.025 8.04001C201.852 8.04001 204.145 8.84001 205.905 10.44C207.665 12.04 208.545 14.5067 208.545 17.84C208.545 21.1733 207.625 23.76 205.785 25.6C203.972 27.44 201.652 28.36 198.825 28.36ZM199.105 8.36001C197.079 8.36001 195.399 9.26668 194.065 11.08C192.732 12.8667 192.065 15.3733 192.065 18.6C192.065 21.8 192.679 24.1733 193.905 25.72C195.132 27.2667 196.759 28.04 198.785 28.04C200.812 28.04 202.492 27.1467 203.825 25.36C205.159 23.5467 205.825 21.04 205.825 17.84C205.825 14.6133 205.212 12.2267 203.985 10.68C202.759 9.13334 201.132 8.36001 199.105 8.36001Z" fill="#4A4947"/>
</svg>
